<svg width="58" height="18" viewBox="0 0 58 18" fill="none" xmlns="http://www.w3.org/2000/svg">
<path d="M0.357955 3.92981H1.76989L4.59375 8.68266H4.71307L7.53693 3.92981H8.94886L5.26989 9.91561V14.1116H4.03693V9.91561L0.357955 3.92981ZM12.206 14.2707C11.4702 14.2707 10.8355 14.1083 10.3019 13.7835C9.77161 13.4554 9.36229 12.998 9.07393 12.4113C8.7889 11.8214 8.64638 11.1353 8.64638 10.3531C8.64638 9.57091 8.7889 8.88152 9.07393 8.28493C9.36229 7.68502 9.76333 7.21769 10.2771 6.88294C10.7941 6.54487 11.3973 6.37584 12.0867 6.37584C12.4844 6.37584 12.8772 6.44213 13.265 6.5747C13.6528 6.70728 14.0058 6.92271 14.3239 7.22101C14.6421 7.51599 14.8957 7.90709 15.0846 8.3943C15.2735 8.88152 15.368 9.48142 15.368 10.194V10.6912H9.48161V9.67697H14.1748C14.1748 9.2461 14.0886 8.86163 13.9163 8.52356C13.7472 8.1855 13.5053 7.91869 13.1904 7.72314C12.8789 7.52759 12.511 7.42981 12.0867 7.42981C11.6194 7.42981 11.215 7.54582 10.8737 7.77783C10.5356 8.00652 10.2754 8.30481 10.0931 8.67271C9.91082 9.04061 9.81967 9.43502 9.81967 9.85595V10.5321C9.81967 11.1088 9.9191 11.5977 10.118 11.9987C10.3201 12.3964 10.6002 12.6997 10.9582 12.9085C11.3161 13.114 11.7321 13.2167 12.206 13.2167C12.5143 13.2167 12.7927 13.1737 13.0413 13.0875C13.2932 12.998 13.5103 12.8654 13.6925 12.6898C13.8748 12.5108 14.0157 12.2887 14.1151 12.0236L15.2487 12.3417C15.1293 12.7262 14.9288 13.0643 14.6471 13.356C14.3654 13.6443 14.0174 13.8697 13.6031 14.0321C13.1888 14.1912 12.7231 14.2707 12.206 14.2707ZM19.0999 14.2906C18.616 14.2906 18.1769 14.1995 17.7825 14.0172C17.388 13.8316 17.0748 13.5648 16.8428 13.2167C16.6108 12.8654 16.4948 12.4412 16.4948 11.944C16.4948 11.5065 16.581 11.1519 16.7533 10.8801C16.9257 10.605 17.156 10.3896 17.4444 10.2338C17.7327 10.078 18.0509 9.96201 18.3989 9.88578C18.7503 9.80624 19.1032 9.74326 19.4579 9.69686C19.9219 9.6372 20.2981 9.59246 20.5864 9.56263C20.8781 9.52948 21.0902 9.4748 21.2228 9.39856C21.3587 9.32233 21.4266 9.18976 21.4266 9.00084V8.96106C21.4266 8.47053 21.2924 8.08938 21.0239 7.8176C20.7588 7.54582 20.3561 7.40993 19.8158 7.40993C19.2557 7.40993 18.8165 7.53256 18.4984 7.77783C18.1802 8.02309 17.9565 8.28493 17.8272 8.56334L16.7136 8.16561C16.9124 7.7016 17.1776 7.34033 17.509 7.0818C17.8438 6.81997 18.2084 6.63767 18.6028 6.53493C19.0005 6.42887 19.3916 6.37584 19.7761 6.37584C20.0213 6.37584 20.3031 6.40567 20.6212 6.46533C20.9427 6.52167 21.2526 6.63933 21.5509 6.81831C21.8525 6.99729 22.1028 7.26741 22.3016 7.62868C22.5005 7.98995 22.5999 8.47385 22.5999 9.08038V14.1116H21.4266V13.0775H21.367C21.2874 13.2433 21.1549 13.4206 20.9692 13.6095C20.7836 13.7984 20.5367 13.9592 20.2285 14.0917C19.9202 14.2243 19.5441 14.2906 19.0999 14.2906ZM19.2789 13.2366C19.7429 13.2366 20.134 13.1455 20.4522 12.9632C20.7737 12.7809 21.0156 12.5456 21.1781 12.2572C21.3438 11.9689 21.4266 11.6656 21.4266 11.3474V10.2736C21.3769 10.3332 21.2675 10.3879 21.0985 10.4376C20.9328 10.484 20.7406 10.5255 20.5218 10.5619C20.3064 10.5951 20.0959 10.6249 19.8904 10.6514C19.6882 10.6746 19.5242 10.6945 19.3982 10.7111C19.0933 10.7508 18.8083 10.8155 18.5431 10.905C18.2813 10.9911 18.0692 11.122 17.9067 11.2977C17.7477 11.4701 17.6681 11.7054 17.6681 12.0037C17.6681 12.4113 17.8189 12.7196 18.1205 12.9284C18.4254 13.1339 18.8116 13.2366 19.2789 13.2366ZM24.4414 14.1116V6.47527H25.575V7.62868H25.6545C25.7937 7.25084 26.0456 6.94426 26.4102 6.70893C26.7748 6.47361 27.1858 6.35595 27.6431 6.35595C27.7293 6.35595 27.837 6.35761 27.9663 6.36092C28.0956 6.36424 28.1933 6.36921 28.2596 6.37584V7.56902C28.2199 7.55908 28.1287 7.54416 27.9862 7.52428C27.847 7.50107 27.6995 7.48947 27.5437 7.48947C27.1725 7.48947 26.8411 7.56736 26.5494 7.72314C26.261 7.8756 26.0324 8.08772 25.8633 8.3595C25.6976 8.62797 25.6147 8.93455 25.6147 9.27925V14.1116H24.4414ZM30.5237 3.92981V14.1116H29.3504V3.92981H30.5237ZM33.1284 16.9753C32.9295 16.9753 32.7522 16.9587 32.5964 16.9256C32.4406 16.8957 32.3329 16.8659 32.2733 16.8361L32.5716 15.802C32.8566 15.8749 33.1085 15.9014 33.3272 15.8815C33.546 15.8616 33.7399 15.7639 33.9089 15.5882C34.0813 15.4158 34.2387 15.1358 34.3812 14.748L34.6 14.1514L31.7761 6.47527H33.0488L35.1568 12.5605H35.2363L37.3443 6.47527H38.617L35.3755 15.2253C35.2297 15.6197 35.0491 15.9462 34.8336 16.2047C34.6182 16.4665 34.368 16.6604 34.0829 16.7863C33.8012 16.9123 33.483 16.9753 33.1284 16.9753Z" fill="#454545"/>
<path d="M47.5 6.86163L51 10.3616L54.5 6.86163" stroke="#7D7D7D" stroke-linecap="round" stroke-linejoin="round"/>
</svg>
